<mxfile host="app.diagrams.net" modified="2024-03-19T04:23:12.285Z" agent="Mozilla/5.0" version="22.1.21">
  <diagram id="chat-usecase" name="Chat Use Case Diagram">
    <mxGraphModel dx="1200" dy="800" grid="1" gridSize="10" guides="1" tooltips="1" connect="1" arrows="1" fold="1" page="1" pageScale="1" pageWidth="850" pageHeight="1100">
      <root>
        <mxCell id="0"/>
        <mxCell id="1" parent="0"/>
        
        <!-- System boundary -->
        <mxCell id="system" value="Hệ thống Chat" style="shape=rectangle;whiteSpace=wrap;html=1;align=center;verticalAlign=top;" vertex="1" parent="1">
          <mxGeometry x="280" y="40" width="400" height="600" as="geometry"/>
        </mxCell>
        
        <!-- Actor -->
        <mxCell id="user" value="Người dùng" style="shape=umlActor;verticalLabelPosition=bottom;verticalAlign=top;" vertex="1" parent="1">
          <mxGeometry x="120" y="280" width="30" height="60" as="geometry"/>
        </mxCell>

        <!-- Use Cases -->
        <mxCell id="uc1" value="Xem danh sách phòng chat" style="ellipse;whiteSpace=wrap;html=1;" vertex="1" parent="1">
          <mxGeometry x="320" y="120" width="140" height="70" as="geometry"/>
        </mxCell>

        <mxCell id="uc2" value="Tạo phòng chat mới" style="ellipse;whiteSpace=wrap;html=1;" vertex="1" parent="1">
          <mxGeometry x="320" y="220" width="140" height="70" as="geometry"/>
        </mxCell>

        <mxCell id="uc3" value="Tham gia phòng chat" style="ellipse;whiteSpace=wrap;html=1;" vertex="1" parent="1">
          <mxGeometry x="320" y="320" width="140" height="70" as="geometry"/>
        </mxCell>

        <mxCell id="uc4" value="Gửi tin nhắn" style="ellipse;whiteSpace=wrap;html=1;" vertex="1" parent="1">
          <mxGeometry x="320" y="420" width="140" height="70" as="geometry"/>
        </mxCell>

        <mxCell id="uc5" value="Rời phòng chat" style="ellipse;whiteSpace=wrap;html=1;" vertex="1" parent="1">
          <mxGeometry x="320" y="520" width="140" height="70" as="geometry"/>
        </mxCell>

        <!-- Include relationships -->
        <mxCell id="inc1" value="&lt;&lt;include&gt;&gt;" style="endArrow=open;endSize=12;dashed=1;html=1;exitX=1;exitY=0.5;exitDx=0;exitDy=0;entryX=0;entryY=0.5;entryDx=0;entryDy=0;" edge="1" parent="1" source="uc3" target="uc6">
          <mxGeometry width="160" relative="1" as="geometry"/>
        </mxCell>

        <mxCell id="uc6" value="Kết nối SignalR" style="ellipse;whiteSpace=wrap;html=1;" vertex="1" parent="1">
          <mxGeometry x="520" y="320" width="140" height="70" as="geometry"/>
        </mxCell>

        <!-- Relationships -->
        <mxCell id="rel1" value="" style="endArrow=none;html=1;" edge="1" parent="1" source="user" target="uc1">
          <mxGeometry relative="1" as="geometry"/>
        </mxCell>

        <mxCell id="rel2" value="" style="endArrow=none;html=1;" edge="1" parent="1" source="user" target="uc2">
          <mxGeometry relative="1" as="geometry"/>
        </mxCell>

        <mxCell id="rel3" value="" style="endArrow=none;html=1;" edge="1" parent="1" source="user" target="uc3">
          <mxGeometry relative="1" as="geometry"/>
        </mxCell>

        <mxCell id="rel4" value="" style="endArrow=none;html=1;" edge="1" parent="1" source="user" target="uc4">
          <mxGeometry relative="1" as="geometry"/>
        </mxCell>

        <mxCell id="rel5" value="" style="endArrow=none;html=1;" edge="1" parent="1" source="user" target="uc5">
          <mxGeometry relative="1" as="geometry"/>
        </mxCell>

      </root>
    </mxGraphModel>
  </diagram>
</mxfile>